# Blender v2.91.2 OBJ File: 'crate.blend'
# www.blender.org
mtllib crate.mtl
o Cube_Cube.001
v -1.000000 -1.000000 1.000000
v -1.000000 1.000000 1.000000
v -1.000000 -1.000000 -1.000000
v -1.000000 1.000000 -1.000000
v 1.000000 -1.000000 1.000000
v 1.000000 1.000000 1.000000
v 1.000000 -1.000000 -1.000000
v 1.000000 1.000000 -1.000000
v -1.000000 -0.754104 0.754104
v -1.000000 0.754104 0.754104
v -1.000000 0.754104 -0.754104
v -1.000000 -0.754104 -0.754104
v -0.754104 -0.754104 -1.000000
v -0.754104 0.754104 -1.000000
v 0.754104 0.754104 -1.000000
v 0.754104 -0.754104 -1.000000
v 1.000000 -0.754104 -0.754104
v 1.000000 0.754104 -0.754104
v 1.000000 0.754104 0.754104
v 1.000000 -0.754104 0.754104
v 0.754104 -0.754104 1.000000
v 0.754104 0.754104 1.000000
v -0.754104 0.754104 1.000000
v -0.754104 -0.754104 1.000000
v -0.754104 -1.000000 -0.754104
v 0.754104 -1.000000 -0.754104
v 0.754104 -1.000000 0.754104
v -0.754104 -1.000000 0.754104
v 0.754104 1.000000 -0.754104
v -0.754104 1.000000 -0.754104
v -0.754104 1.000000 0.754104
v 0.754104 1.000000 0.754104
v -0.855265 -0.754104 0.754104
v -0.855265 0.754104 0.754104
v -0.855265 0.754104 -0.754104
v -0.855265 -0.754104 -0.754104
v -0.754104 -0.754104 -0.855265
v -0.754104 0.754104 -0.855265
v 0.754104 0.754104 -0.855265
v 0.754104 -0.754104 -0.855265
v 0.855265 -0.754104 -0.754104
v 0.855265 0.754104 -0.754104
v 0.855265 0.754104 0.754104
v 0.855265 -0.754104 0.754104
v 0.754104 -0.754104 0.855265
v 0.754104 0.754104 0.855265
v -0.754104 0.754104 0.855265
v -0.754104 -0.754104 0.855265
v -0.754104 -0.855265 -0.754104
v 0.754104 -0.855265 -0.754104
v 0.754104 -0.855265 0.754104
v -0.754104 -0.855265 0.754104
v 0.754104 0.855265 -0.754104
v -0.754104 0.855265 -0.754104
v -0.754104 0.855265 0.754104
v 0.754104 0.855265 0.754104
v 0.835904 -0.932148 0.713598
v 0.835904 -0.713598 0.932148
v 0.835904 0.713598 -0.932148
v 0.835904 0.932148 -0.713598
v 0.964096 -0.932148 0.713598
v 0.964096 -0.713598 0.932148
v 0.964096 0.713598 -0.932148
v 0.964096 0.932148 -0.713598
v -0.713598 -0.932148 0.835905
v -0.932149 -0.713598 0.835905
v 0.932148 0.713598 0.835905
v 0.713598 0.932148 0.835905
v -0.713598 -0.932148 0.964096
v -0.932149 -0.713598 0.964096
v 0.932148 0.713598 0.964096
v 0.713598 0.932148 0.964096
v -0.835904 -0.932148 -0.713598
v -0.835903 -0.713598 -0.932148
v -0.835904 0.713598 0.932148
v -0.835904 0.932148 0.713598
v -0.964095 -0.932148 -0.713598
v -0.964095 -0.713598 -0.932148
v -0.964095 0.713598 0.932148
v -0.964095 0.932148 0.713598
v 0.713599 -0.932148 -0.835904
v 0.932149 -0.713598 -0.835904
v -0.932148 0.713598 -0.835904
v -0.713598 0.932148 -0.835904
v 0.713599 -0.932148 -0.964095
v 0.932149 -0.713598 -0.964095
v -0.932148 0.713598 -0.964095
v -0.713598 0.932148 -0.964095
v 0.713598 0.964095 0.932148
v 0.932148 0.964095 0.713598
v -0.932148 0.964095 -0.713598
v -0.713598 0.964095 -0.932148
v 0.713598 0.835904 0.932148
v 0.932148 0.835904 0.713598
v -0.932148 0.835904 -0.713598
v -0.713598 0.835904 -0.932148
v 0.713598 -0.964095 -0.932148
v 0.932148 -0.964095 -0.713598
v -0.932148 -0.964095 0.713598
v -0.713598 -0.964095 0.932148
v 0.713598 -0.835904 -0.932148
v 0.932148 -0.835904 -0.713598
v -0.932148 -0.835904 0.713598
v -0.713598 -0.835904 0.932148
vt 0.375000 0.500000
vt 0.625000 0.500000
vt 0.625000 0.750000
vt 0.375000 0.750000
vt 0.125000 0.500000
vt 0.375000 0.500000
vt 0.375000 0.750000
vt 0.125000 0.750000
vt 0.625000 0.500000
vt 0.875000 0.500000
vt 0.875000 0.750000
vt 0.625000 0.750000
vt 0.375000 0.000000
vt 0.625000 0.000000
vt 0.594263 0.030737
vt 0.405737 0.030737
vt 0.625000 0.250000
vt 0.594263 0.219263
vt 0.375000 0.250000
vt 0.405737 0.219263
vt 0.594263 0.280737
vt 0.405737 0.280737
vt 0.625000 0.500000
vt 0.594263 0.469263
vt 0.375000 0.500000
vt 0.405737 0.469263
vt 0.594263 0.530737
vt 0.405737 0.530737
vt 0.625000 0.750000
vt 0.594263 0.719263
vt 0.375000 0.750000
vt 0.405737 0.719263
vt 0.594263 0.780737
vt 0.405737 0.780737
vt 0.625000 1.000000
vt 0.594263 0.969263
vt 0.375000 1.000000
vt 0.405737 0.969263
vt 0.125000 0.500000
vt 0.344263 0.530737
vt 0.155737 0.530737
vt 0.344263 0.719263
vt 0.125000 0.750000
vt 0.155737 0.719263
vt 0.875000 0.500000
vt 0.844263 0.530737
vt 0.655737 0.530737
vt 0.875000 0.750000
vt 0.844263 0.719263
vt 0.655737 0.719263
vt 0.405737 0.030737
vt 0.594263 0.030737
vt 0.594263 0.219263
vt 0.405737 0.219263
vt 0.405737 0.280737
vt 0.594263 0.280737
vt 0.594263 0.469263
vt 0.405737 0.469263
vt 0.405737 0.530737
vt 0.594263 0.530737
vt 0.594263 0.719263
vt 0.405737 0.719263
vt 0.405737 0.780737
vt 0.594263 0.780737
vt 0.594263 0.969263
vt 0.405737 0.969263
vt 0.155737 0.530737
vt 0.344263 0.530737
vt 0.344263 0.719263
vt 0.155737 0.719263
vt 0.655737 0.530737
vt 0.844263 0.530737
vt 0.844263 0.719263
vt 0.655737 0.719263
vt 0.375000 0.500000
vt 0.625000 0.500000
vt 0.625000 0.750000
vt 0.375000 0.750000
vt 0.125000 0.500000
vt 0.375000 0.500000
vt 0.375000 0.750000
vt 0.125000 0.750000
vt 0.625000 0.500000
vt 0.875000 0.500000
vt 0.875000 0.750000
vt 0.625000 0.750000
vt 0.375000 0.500000
vt 0.625000 0.500000
vt 0.625000 0.750000
vt 0.375000 0.750000
vt 0.125000 0.500000
vt 0.375000 0.500000
vt 0.375000 0.750000
vt 0.125000 0.750000
vt 0.625000 0.500000
vt 0.875000 0.500000
vt 0.875000 0.750000
vt 0.625000 0.750000
vt 0.375000 0.500000
vt 0.625000 0.500000
vt 0.625000 0.750000
vt 0.375000 0.750000
vt 0.125000 0.500000
vt 0.375000 0.500000
vt 0.375000 0.750000
vt 0.125000 0.750000
vt 0.625000 0.500000
vt 0.875000 0.500000
vt 0.875000 0.750000
vt 0.625000 0.750000
vt 0.375000 0.500000
vt 0.625000 0.500000
vt 0.625000 0.750000
vt 0.375000 0.750000
vt 0.375000 0.750000
vt 0.625000 0.750000
vt 0.625000 1.000000
vt 0.375000 1.000000
vt 0.125000 0.500000
vt 0.375000 0.500000
vt 0.375000 0.750000
vt 0.125000 0.750000
vt 0.375000 0.500000
vt 0.625000 0.500000
vt 0.625000 0.750000
vt 0.375000 0.750000
vt 0.375000 0.750000
vt 0.625000 0.750000
vt 0.625000 1.000000
vt 0.375000 1.000000
vt 0.125000 0.500000
vt 0.375000 0.500000
vt 0.375000 0.750000
vt 0.125000 0.750000
vt 0.375000 0.000000
vt 0.625000 0.000000
vt 0.625000 0.250000
vt 0.375000 0.250000
vt 0.375000 0.250000
vt 0.625000 0.250000
vt 0.625000 0.500000
vt 0.375000 0.500000
vt 0.375000 0.750000
vt 0.625000 0.750000
vt 0.625000 1.000000
vt 0.375000 1.000000
vt 0.375000 0.000000
vt 0.625000 0.000000
vt 0.625000 0.250000
vt 0.375000 0.250000
vt 0.375000 0.250000
vt 0.625000 0.250000
vt 0.625000 0.500000
vt 0.375000 0.500000
vt 0.375000 0.750000
vt 0.625000 0.750000
vt 0.625000 1.000000
vt 0.375000 1.000000
vt 0.375000 0.000000
vt 0.625000 0.000000
vt 0.625000 0.250000
vt 0.375000 0.250000
vt 0.375000 0.250000
vt 0.625000 0.250000
vt 0.625000 0.500000
vt 0.375000 0.500000
vt 0.375000 0.750000
vt 0.625000 0.750000
vt 0.625000 1.000000
vt 0.375000 1.000000
vt 0.375000 0.000000
vt 0.625000 0.000000
vt 0.625000 0.250000
vt 0.375000 0.250000
vt 0.375000 0.250000
vt 0.625000 0.250000
vt 0.625000 0.500000
vt 0.375000 0.500000
vt 0.375000 0.750000
vt 0.625000 0.750000
vt 0.625000 1.000000
vt 0.375000 1.000000
vt 0.375000 0.000000
vt 0.625000 0.000000
vt 0.625000 0.250000
vt 0.375000 0.250000
vt 0.375000 0.250000
vt 0.625000 0.250000
vt 0.625000 0.500000
vt 0.375000 0.500000
vt 0.625000 0.500000
vt 0.875000 0.500000
vt 0.875000 0.750000
vt 0.625000 0.750000
vt 0.375000 0.000000
vt 0.625000 0.000000
vt 0.625000 0.250000
vt 0.375000 0.250000
vt 0.375000 0.250000
vt 0.625000 0.250000
vt 0.625000 0.500000
vt 0.375000 0.500000
vt 0.625000 0.500000
vt 0.875000 0.500000
vt 0.875000 0.750000
vt 0.625000 0.750000
vn 0.0000 -0.7071 0.7071
vn 0.0000 0.7071 -0.7071
vn -1.0000 0.0000 0.0000
vn 0.0000 0.0000 -1.0000
vn 1.0000 0.0000 0.0000
vn 0.0000 0.0000 1.0000
vn 0.0000 -1.0000 0.0000
vn 0.0000 1.0000 0.0000
vn -0.7071 -0.7071 0.0000
vn 0.7071 0.7071 0.0000
vn 0.0000 -0.7071 -0.7071
vn 0.0000 0.7071 0.7071
vn 0.7071 -0.7071 0.0000
vn -0.7071 0.7071 0.0000
vn 0.7071 0.0000 0.7071
vn -0.7071 0.0000 -0.7071
vn 0.7071 0.0000 -0.7071
vn -0.7071 0.0000 0.7071
usemtl Material.001
s off
f 61/1/1 62/2/1 58/3/1 57/4/1
f 59/5/2 60/6/2 64/7/2 63/8/2
f 57/9/3 58/10/3 60/11/3 59/12/3
f 1/13/3 2/14/3 10/15/3 9/16/3
f 2/14/3 4/17/3 11/18/3 10/15/3
f 4/17/3 3/19/3 12/20/3 11/18/3
f 3/19/3 1/13/3 9/16/3 12/20/3
f 3/19/4 4/17/4 14/21/4 13/22/4
f 4/17/4 8/23/4 15/24/4 14/21/4
f 8/23/4 7/25/4 16/26/4 15/24/4
f 7/25/4 3/19/4 13/22/4 16/26/4
f 7/25/5 8/23/5 18/27/5 17/28/5
f 8/23/5 6/29/5 19/30/5 18/27/5
f 6/29/5 5/31/5 20/32/5 19/30/5
f 5/31/5 7/25/5 17/28/5 20/32/5
f 5/31/6 6/29/6 22/33/6 21/34/6
f 6/29/6 2/35/6 23/36/6 22/33/6
f 2/35/6 1/37/6 24/38/6 23/36/6
f 1/37/6 5/31/6 21/34/6 24/38/6
f 3/39/7 7/25/7 26/40/7 25/41/7
f 7/25/7 5/31/7 27/42/7 26/40/7
f 5/31/7 1/43/7 28/44/7 27/42/7
f 1/43/7 3/39/7 25/41/7 28/44/7
f 8/23/8 4/45/8 30/46/8 29/47/8
f 4/45/8 2/48/8 31/49/8 30/46/8
f 2/48/8 6/29/8 32/50/8 31/49/8
f 6/29/8 8/23/8 29/47/8 32/50/8
f 33/51/3 34/52/3 35/53/3 36/54/3
f 10/15/4 34/52/4 33/51/4 9/16/4
f 11/18/7 35/53/7 34/52/7 10/15/7
f 12/20/6 36/54/6 35/53/6 11/18/6
f 9/16/8 33/51/8 36/54/8 12/20/8
f 37/55/4 38/56/4 39/57/4 40/58/4
f 14/21/5 38/56/5 37/55/5 13/22/5
f 15/24/7 39/57/7 38/56/7 14/21/7
f 16/26/3 40/58/3 39/57/3 15/24/3
f 13/22/8 37/55/8 40/58/8 16/26/8
f 41/59/5 42/60/5 43/61/5 44/62/5
f 18/27/6 42/60/6 41/59/6 17/28/6
f 19/30/7 43/61/7 42/60/7 18/27/7
f 20/32/4 44/62/4 43/61/4 19/30/4
f 17/28/8 41/59/8 44/62/8 20/32/8
f 45/63/6 46/64/6 47/65/6 48/66/6
f 22/33/3 46/64/3 45/63/3 21/34/3
f 23/36/7 47/65/7 46/64/7 22/33/7
f 24/38/5 48/66/5 47/65/5 23/36/5
f 21/34/8 45/63/8 48/66/8 24/38/8
f 49/67/7 50/68/7 51/69/7 52/70/7
f 26/40/6 50/68/6 49/67/6 25/41/6
f 27/42/3 51/69/3 50/68/3 26/40/3
f 28/44/4 52/70/4 51/69/4 27/42/4
f 25/41/5 49/67/5 52/70/5 28/44/5
f 53/71/8 54/72/8 55/73/8 56/74/8
f 30/46/6 54/72/6 53/71/6 29/47/6
f 31/49/5 55/73/5 54/72/5 30/46/5
f 32/50/4 56/74/4 55/73/4 31/49/4
f 29/47/3 53/71/3 56/74/3 32/50/3
f 69/75/9 70/76/9 66/77/9 65/78/9
f 67/79/10 68/80/10 72/81/10 71/82/10
f 65/83/4 66/84/4 68/85/4 67/86/4
f 77/87/11 78/88/11 74/89/11 73/90/11
f 75/91/12 76/92/12 80/93/12 79/94/12
f 73/95/5 74/96/5 76/97/5 75/98/5
f 85/99/13 86/100/13 82/101/13 81/102/13
f 83/103/14 84/104/14 88/105/14 87/106/14
f 81/107/6 82/108/6 84/109/6 83/110/6
f 93/111/15 94/112/15 90/113/15 89/114/15
f 95/115/7 96/116/7 94/117/7 93/118/7
f 91/119/16 92/120/16 96/121/16 95/122/16
f 101/123/17 102/124/17 98/125/17 97/126/17
f 103/127/8 104/128/8 102/129/8 101/130/8
f 99/131/18 100/132/18 104/133/18 103/134/18
usemtl Material.002
f 64/135/12 60/136/12 58/137/12 62/138/12
f 59/139/11 63/140/11 61/141/11 57/142/11
f 63/143/5 64/144/5 62/145/5 61/146/5
f 72/147/14 68/148/14 66/149/14 70/150/14
f 67/151/13 71/152/13 69/153/13 65/154/13
f 71/155/6 72/156/6 70/157/6 69/158/6
f 80/159/2 76/160/2 74/161/2 78/162/2
f 75/163/1 79/164/1 77/165/1 73/166/1
f 79/167/3 80/168/3 78/169/3 77/170/3
f 88/171/10 84/172/10 82/173/10 86/174/10
f 83/175/9 87/176/9 85/177/9 81/178/9
f 87/179/4 88/180/4 86/181/4 85/182/4
f 96/183/17 92/184/17 90/185/17 94/186/17
f 91/187/18 95/188/18 93/189/18 89/190/18
f 89/191/8 90/192/8 92/193/8 91/194/8
f 104/195/15 100/196/15 98/197/15 102/198/15
f 99/199/16 103/200/16 101/201/16 97/202/16
f 97/203/7 98/204/7 100/205/7 99/206/7
